<?xml version="1.0" encoding="UTF-8"?>
<svg id="Layer_1" xmlns="http://www.w3.org/2000/svg" version="1.1" viewBox="0 0 9665.49 1994.82">
  <!-- Generator: Adobe Illustrator 30.1.0, SVG Export Plug-In . SVG Version: 2.1.1 Build 136)  -->
  <defs>
    <style>
      .st0 {
        fill: #ee6405;
      }

      .st1 {
        fill: #fefdfd;
      }

      .st2 {
        fill: #fefefd;
      }

      .st3 {
        fill: #f6f6f6;
      }

      .st4 {
        fill: #fefffe;
      }

      .st5 {
        fill: #ed6305;
      }

      .st6 {
        fill: #fffeff;
      }

      .st7 {
        fill: #fdfdfc;
      }

      .st8 {
        fill: #fff;
      }

      .st9 {
        fill: #101828;
        font-family: Poppins-Bold, Poppins;
        font-size: 1104.74px;
        font-weight: 700;
      }

      .st10 {
        fill: #f06605;
      }

      .st11 {
        fill: #f7f8f7;
      }

      .st12 {
        fill: #ec6406;
      }

      .st13 {
        fill: #fdfdfd;
      }
    </style>
  </defs>
  <g>
    <polygon points="1592.75 1182.93 787.33 506.06 751.41 473.63 750.99 171.63 750.91 114.16 713.06 157.4 516.94 381.45 60.81 898.97 55.42 905.08 55.4 913.24 53.29 1923.63 53.25 1945.32 74.94 1945.32 1578.83 1945.32 1600.47 1945.32 1600.47 1923.68 1600.47 1199.5 1600.47 1189.42 1592.75 1182.93"/>
    <g>
      <polygon class="st4" points="729.35 171.66 526.93 403.02 526.98 1452.47 731.43 1451.95 729.35 171.66"/>
      <polygon class="st6" points="304.72 1452.39 304.54 653.67 484.7 448.83 485.35 1451.79 304.72 1452.39"/>
      <path class="st0" d="M1581.34,1199.5l-120.47-102.12c-14.35-12.17-26.74-24.01-45.31-35.06l-.49,783.81c22.68,3.86,44.07,1.61,66.25,1.55l100.02-.31v-647.87Z"/>
      <path class="st8" d="M77.18,1452.42l-.14-539.14c6.05-11.11,13.96-17.36,21.98-26.46l163.01-184.92.2,750.33-185.05.19Z"/>
      <path class="st1" d="M318.77,1889.82c26.99-.01,19.88-27.83,19.74-45.8l-108.25-.31c-2.06-11.48-1.25-21.54-.81-33.9l150.74-.03c.97,21.3.9,39.64.35,60.67-.7,26.52-21.82,52.06-50.23,52.04l-203.1-.09c-25.37-.01-48.3-22.4-49.37-46.94-1.71-39.06-1.15-74.69-.21-114.02.55-22.97,22.64-47.38,47.02-47.31l211.18.59c33.21.09,50.59,38.28,44.07,67.55-13.66,1.92-26.24.83-40.26.63l-1.17-20.69c-.56-9.92-7.84-16.4-18.21-16.37l-185.12.47c-9.53.02-16.18,11.89-16.13,20.37l.56,108.79c.05,9.92,12.06,14.43,20.9,14.42l178.31-.07Z"/>
      <path class="st2" d="M1283.22,1833.16l-216.64.96-.06,55.36,231.97.41c1.03,10.83,1.43,21.27.02,33.27l-274.42-.14v-209.48s274.15.12,274.15.12c1.58,11.56,1.5,21.1.04,32.23l-231.76.22-.02,55.03,216.57.27c2.35,9.92,1.33,18.29.14,31.75Z"/>
      <path class="st13" d="M1001.79,1923.04l-280.3.18c-1.55-10.46-.35-19.97-.62-32.35l212.49-143.78-207.66-1.48c-.57-11.12-1.05-20.5.13-31.92l275.92-.03.28,30.16-213.3,144.76,213.04,1.82c.8,11.43.59,19.48.03,32.65Z"/>
      <path class="st13" d="M658.37,1714.57c14.03-1.88,26.13-.94,40.54-.4l-.26,158.53c-.04,26.84-20.45,44.49-46.12,50.41l-194.25-.81c-25.03-.1-47.36-22.45-47.49-46.88l-.88-161.41c14.95-.75,27.53-.66,42.03.11l.46,161.4c.02,8.07,9.99,14.36,17.51,14.36h167.56c12.41,0,20.23-8.31,20.28-20.41l.61-154.89Z"/>
      <path class="st7" d="M1577.77,1889.83c2.46,11.2,1.51,21.48.49,33.28l-252.83-.04.07-208.9c14.5-.94,27.23-.92,41.78-.02l.21,175.53,210.28.14Z"/>
      <path class="st3" d="M621.38,1750.75c-13.23,1.13-25.06.51-38.67.21l-.16-36.87h38.51s.31,36.66.31,36.66Z"/>
      <path class="st11" d="M529.3,1750.71c-12.95,1.12-23.94.8-36.65.29-1.13-12.81-.8-23.79-.3-36.76,12.84-.85,23.94-.92,36.67-.05l.28,36.53Z"/>
      <path class="st10" d="M773.11,522.38l.04,899.6c0,23.34.59,43.4-1.23,66.31l-694.29-.14c-.97,10.3-3.44,18.35,1.85,25.54l869.69-.11-3.41-845.38-172.65-145.81Z"/>
      <path class="st5" d="M1378.46,1327.52l-.75-299.44-170.97-148.2-.77,752.07-1128.45.17c-.98,14.42-1.16,28.04.06,42.15l1299.79.05.74-327.36c.02-7.16-4.6-12.48.33-19.44Z"/>
      <path class="st12" d="M1163.09,862.44c2.74-10.39-1.15-18.24-8.64-25.38l-164.65-139.07-.64,851.95-911.9.26-.61,44.31c7.52,6.56,13.64.61,22.58.61l1045.43.02c4.87,0,18.6,4.46,18.61-3.47l.32-399.51-.27-102.12c-.02-9.03-2.56-17.04-1.82-26.91,3.81-51.31,1.29-101.5,1.15-152.7-.05-16.27,2.04-31.71.44-47.98Z"/>
    </g>
  </g>
  <text class="st9" transform="translate(1928.18 1478.07)"><tspan x="0" y="0">GÜZEL INVEST</tspan></text>
</svg>